# xmcd
#
# Track frame offsets: 
#        150
#        68257
#        105122
#        133452
#        158387
#        191082
#        214477
#        249975
#
# Disc length: 3640 seconds
#
# Revision: 4
# Processed by: cddbd v1.5.2PL0 Copyright (c) Steve Scherf et al.
# Submitted via: ExactAudioCopyFreeDBPlugin 1.0
#
DISCID=650e3608
DTITLE=Miles Davis - The Greatests History 1955-1969
DYEAR=1900
DGENRE=JAZZ
TTITLE0=My Funny Valentine
TTITLE1=Walkin'
TTITLE2=Four
TTITLE3=E.S.P
TTITLE4=Freedom Jazz Dance
TTITLE5=The Sorcerer
TTITLE6=Nefertiti
TTITLE7=Water Babies
EXTD=
EXTT0=
EXTT1=
EXTT2=
EXTT3=
EXTT4=
EXTT5=
EXTT6=
EXTT7=
PLAYORDER=
